<svg width="112" height="112" viewBox="0 0 112 112" fill="none" xmlns="http://www.w3.org/2000/svg">
<circle cx="56" cy="56" r="54" stroke="#404040" stroke-width="4"/>
<path d="M55.4464 81C51.6297 81 48.5357 77.906 48.5357 74.0893V38.9107C48.5357 35.094 51.6297 32 55.4464 32C59.2631 32 62.3571 35.094 62.3571 38.9107V74.0893C62.3571 77.906 59.2631 81 55.4464 81ZM36.4697 62.9697C32.8966 62.9697 30 60.0731 30 56.5C30 52.9269 32.8966 50.0303 36.4697 50.0303H74.5303C78.1034 50.0303 81 52.9269 81 56.5C81 60.0731 78.1034 62.9697 74.5303 62.9697H36.4697Z" fill="#404040"/>
</svg>
