<svg width="154" height="140" viewBox="0 0 154 140" fill="none" xmlns="http://www.w3.org/2000/svg">
<path d="M139.254 110.419C145.138 113.468 147.505 120.78 143.605 126.138C135.365 137.458 124.231 146.459 111.276 152.136C94.6377 159.427 76.0023 160.792 58.4786 156.005C40.9549 151.217 25.6025 140.566 14.9826 125.827C4.36267 111.089 -0.882709 93.1549 0.121471 75.0167C1.12565 56.8785 8.31867 39.633 20.5006 26.157C32.6826 12.6811 49.1169 3.78946 67.062 0.965478C85.0071 -1.85851 103.378 1.55589 119.11 10.6391C131.358 17.711 141.431 27.8863 148.371 40.0468C151.656 45.8027 148.497 52.8084 142.312 55.1894L118.993 64.1664C112.808 66.5474 105.988 63.201 101.413 58.4063C99.4272 56.325 97.1423 54.5216 94.6158 53.0628C88.5892 49.5832 81.5517 48.2753 74.6772 49.3571C67.8028 50.4389 61.5072 53.8451 56.8405 59.0075C52.1739 64.1698 49.4184 70.7762 49.0337 77.7246C48.649 84.673 50.6584 91.5432 54.7267 97.1891C58.795 102.835 64.6761 106.915 71.3891 108.749C78.1021 110.584 85.241 110.06 91.6149 107.267C94.287 106.096 96.7569 104.556 98.9605 102.707C104.037 98.4464 111.184 95.8733 117.069 98.9225L139.254 110.419Z" fill="black"/>
<path d="M104.1 79.6482C104.1 93.1522 93.1525 104.099 79.6485 104.099C66.1445 104.099 55.1973 93.1522 55.1973 79.6482C55.1973 66.1442 66.1445 55.197 79.6485 55.197C93.1525 55.197 104.1 66.1442 104.1 79.6482Z" fill="#393939"/>
<path d="M91.9951 79.6482C91.9951 86.4671 86.4673 91.9948 79.6484 91.9948C72.8295 91.9948 67.3018 86.4671 67.3018 79.6482C67.3018 72.8293 72.8295 67.3015 79.6484 67.3015C86.4673 67.3015 91.9951 72.8293 91.9951 79.6482Z" fill="#B91717"/>
<path d="M86.6682 79.6481C86.6682 83.5255 83.525 86.6688 79.6476 86.6688C75.7702 86.6688 72.627 83.5255 72.627 79.6481C72.627 75.7708 75.7702 72.6275 79.6476 72.6275C83.525 72.6275 86.6682 75.7708 86.6682 79.6481Z" fill="#151515"/>
<path d="M109.339 29.3222C111.592 29.9893 112.831 32.4965 110.951 33.9054C109.706 34.8383 108.078 35.5391 106.161 35.9676C104.244 36.3961 102.075 36.544 99.7777 36.4029C97.4805 36.2617 95.1002 35.8343 92.7726 35.145C90.4451 34.4556 88.2158 33.5179 86.2122 32.3854C84.2087 31.2528 82.4699 29.9476 81.0954 28.5442C79.7208 27.1408 78.7373 25.6668 78.201 24.2063C77.3911 22.0007 79.796 20.5728 82.0488 21.24L88.6329 23.1899C89.3625 23.406 89.7665 24.2187 90.0288 24.933C90.2025 25.406 90.521 25.8834 90.9661 26.3378C91.4113 26.7923 91.9744 27.215 92.6232 27.5818C93.2721 27.9486 93.994 28.2523 94.7478 28.4755C95.5016 28.6987 96.2725 28.8372 97.0164 28.8829C97.7604 28.9286 98.4628 28.8807 99.0837 28.7419C99.7046 28.6031 100.232 28.3762 100.635 28.0741C101.244 27.6178 102.025 27.1562 102.755 27.3722L109.339 29.3222Z" fill="#D9D9D9"/>
<path d="M139.148 103.549C141.551 101.865 144.853 103.597 144.835 106.531C144.818 109.238 141.941 110.966 139.543 109.709C137.146 108.452 136.931 105.103 139.148 103.549Z" fill="#D9D9D9"/>
<path d="M141.418 62.5881C143.651 64.4916 147.102 63.0802 147.362 60.1571C147.601 57.4608 144.9 55.4686 142.394 56.4933C139.889 57.5181 139.358 60.8322 141.418 62.5881Z" fill="#D9D9D9"/>
<path d="M117.844 92.4131C120.247 90.7292 123.549 92.4607 123.531 95.3951C123.514 98.102 120.637 99.8299 118.239 98.5728C115.842 97.3158 115.627 93.9663 117.844 92.4131Z" fill="#D9D9D9"/>
<path d="M120.213 70.4178C122.474 72.2892 125.904 70.8284 126.122 67.902C126.322 65.2026 123.593 63.2492 121.102 64.3097C118.612 65.3702 118.128 68.6916 120.213 70.4178Z" fill="#D9D9D9"/>
</svg>
