<svg width="154" height="136" viewBox="0 0 154 136" fill="none" xmlns="http://www.w3.org/2000/svg">
<path d="M139.254 110.419C145.138 113.468 147.505 120.78 143.605 126.138C135.365 137.458 124.231 146.459 111.276 152.136C94.6377 159.427 76.0023 160.792 58.4786 156.005C40.9549 151.217 25.6025 140.566 14.9826 125.827C4.36267 111.089 -0.882709 93.1549 0.121471 75.0167C1.12565 56.8785 8.31867 39.633 20.5006 26.157C32.6826 12.6811 49.1169 3.78946 67.062 0.965478C85.0071 -1.85851 103.378 1.55589 119.11 10.6391C131.358 17.711 141.431 27.8863 148.371 40.0468C151.656 45.8027 148.497 52.8084 142.312 55.1894L118.993 64.1664C112.808 66.5474 105.988 63.201 101.413 58.4063C99.4272 56.325 97.1423 54.5216 94.6158 53.0628C88.5892 49.5832 81.5517 48.2753 74.6772 49.3571C67.8028 50.4389 61.5072 53.8451 56.8405 59.0075C52.1739 64.1698 49.4184 70.7762 49.0337 77.7246C48.649 84.673 50.6584 91.5432 54.7267 97.1891C58.795 102.835 64.6761 106.915 71.3891 108.749C78.1021 110.584 85.241 110.06 91.6149 107.267C94.287 106.096 96.7569 104.556 98.9605 102.707C104.037 98.4464 111.184 95.8733 117.069 98.9225L139.254 110.419Z" fill="black"/>
<path d="M104.902 79.4512C104.902 92.9553 93.9553 103.902 80.4512 103.902C66.9472 103.902 56 92.9553 56 79.4512C56 65.9472 66.9472 55 80.4512 55C93.9553 55 104.902 65.9472 104.902 79.4512Z" fill="#393939"/>
<path d="M91.9948 79.6482C91.9948 86.467 86.467 91.9948 79.6482 91.9948C72.8293 91.9948 67.3015 86.467 67.3015 79.6482C67.3015 72.8293 72.8293 67.3015 79.6482 67.3015C86.467 67.3015 91.9948 72.8293 91.9948 79.6482Z" fill="#B91717"/>
<path d="M86.6687 79.6481C86.6687 83.5255 83.5255 86.6688 79.6481 86.6688C75.7707 86.6688 72.6274 83.5255 72.6274 79.6481C72.6274 75.7708 75.7707 72.6275 79.6481 72.6275C83.5255 72.6275 86.6687 75.7708 86.6687 79.6481Z" fill="#151515"/>
<path d="M109.339 29.3222C111.592 29.9894 112.831 32.4966 110.951 33.9054C109.706 34.8384 108.078 35.5391 106.161 35.9676C104.244 36.3961 102.075 36.544 99.7776 36.4029C97.4804 36.2617 95.1001 35.8343 92.7725 35.145C90.4449 34.4557 88.2157 33.5179 86.2121 32.3854C84.2085 31.2528 82.4698 29.9476 81.0952 28.5442C79.7207 27.1409 78.7372 25.6668 78.2009 24.2063C77.391 22.0008 79.7959 20.5728 82.0487 21.24L88.6328 23.1899C89.3623 23.406 89.7664 24.2188 90.0287 24.933C90.2023 25.406 90.5208 25.8834 90.966 26.3379C91.4112 26.7924 91.9743 27.2151 92.6231 27.5818C93.272 27.9486 93.9939 28.2523 94.7477 28.4755C95.5015 28.6988 96.2724 28.8372 97.0163 28.8829C97.7603 28.9286 98.4627 28.8807 99.0836 28.7419C99.7044 28.6032 100.232 28.3762 100.635 28.0741C101.244 27.6178 102.025 27.1562 102.755 27.3723L109.339 29.3222Z" fill="#D9D9D9"/>
<path d="M139.148 103.549C141.551 101.865 144.854 103.597 144.835 106.531C144.818 109.238 141.941 110.966 139.544 109.709C137.146 108.452 136.931 105.103 139.148 103.549Z" fill="#D9D9D9"/>
<path d="M141.418 62.5881C143.651 64.4917 147.102 63.0802 147.361 60.1572C147.6 57.4609 144.899 55.4686 142.394 56.4934C139.888 57.5181 139.357 60.8322 141.418 62.5881Z" fill="#D9D9D9"/>
<path d="M117.844 92.4131C120.247 90.7293 123.549 92.4607 123.531 95.3951C123.514 98.102 120.637 99.8299 118.239 98.5728C115.842 97.3158 115.627 93.9664 117.844 92.4131Z" fill="#D9D9D9"/>
<path d="M120.214 70.4178C122.474 72.2892 125.904 70.8284 126.122 67.902C126.322 65.2026 123.593 63.2492 121.102 64.3097C118.612 65.3702 118.129 68.6916 120.214 70.4178Z" fill="#D9D9D9"/>
</svg>
