<svg width="202" height="71" viewBox="0 0 202 71" fill="none" xmlns="http://www.w3.org/2000/svg">
<path d="M190.18 46.6994C195.539 49.4762 197.722 56.2449 193.449 60.5076C190.359 63.5909 186.703 66.0988 182.647 67.8762C175.223 71.1292 166.909 71.7384 159.091 69.6024C151.272 67.4664 144.423 62.7142 139.685 56.1386C134.946 49.563 132.606 41.5616 133.054 33.4691C133.502 25.3767 136.711 17.6825 142.146 11.6701C147.582 5.65774 154.914 1.69069 162.92 0.430754C170.926 -0.829184 179.123 0.69417 186.142 4.7467C189.977 6.96096 193.334 9.85712 196.065 13.2628C199.841 17.971 196.924 24.4574 191.291 26.6256L189.701 27.2377C184.947 29.068 179.625 26.2216 175.213 23.6743C172.525 22.1219 169.385 21.5383 166.318 22.021C163.251 22.5036 160.442 24.0233 158.36 26.3265C156.278 28.6297 155.048 31.5772 154.877 34.6773C154.705 37.7773 155.602 40.8425 157.417 43.3615C159.232 45.8805 161.856 47.701 164.851 48.5192C167.846 49.3375 171.031 49.1041 173.875 47.8579C178.541 45.8132 184.144 43.5717 188.667 45.9157L190.18 46.6994Z" fill="black"/>
<path d="M179.445 35.5355C179.445 41.5604 174.56 46.4446 168.535 46.4446C162.511 46.4446 157.626 41.5604 157.626 35.5355C157.626 29.5106 162.511 24.6265 168.535 24.6265C174.56 24.6265 179.445 29.5106 179.445 35.5355Z" fill="#393939"/>
<path d="M174.044 35.5355C174.044 38.5778 171.578 41.044 168.535 41.044C165.493 41.044 163.027 38.5778 163.027 35.5355C163.027 32.4932 165.493 30.027 168.535 30.027C171.578 30.027 174.044 32.4932 174.044 35.5355Z" fill="#B91717"/>
<path d="M171.668 35.5355C171.668 37.2654 170.265 38.6678 168.535 38.6678C166.806 38.6678 165.403 37.2654 165.403 35.5355C165.403 33.8056 166.806 32.4032 168.535 32.4032C170.265 32.4032 171.668 33.8056 171.668 35.5355Z" fill="#151515"/>
<path d="M181.782 13.0822C182.787 13.3799 183.34 14.4985 182.501 15.127C181.946 15.5433 181.22 15.8559 180.364 16.0471C179.509 16.2383 178.541 16.3043 177.516 16.2413C176.491 16.1783 175.429 15.9876 174.391 15.6801C173.353 15.3725 172.358 14.9542 171.464 14.4489C170.57 13.9436 169.794 13.3612 169.181 12.7351C168.568 12.109 168.129 11.4513 167.89 10.7997C167.528 9.8157 168.601 9.17862 169.607 9.47629L172.544 10.3463C172.87 10.4427 173.05 10.8053 173.167 11.1239C173.244 11.335 173.386 11.548 173.585 11.7507C173.784 11.9535 174.035 12.1421 174.324 12.3057C174.614 12.4694 174.936 12.6049 175.272 12.7045C175.609 12.8041 175.953 12.8658 176.284 12.8862C176.616 12.9066 176.93 12.8852 177.207 12.8233C177.484 12.7614 177.719 12.6602 177.899 12.5254C178.17 12.3218 178.519 12.1158 178.845 12.2122L181.782 13.0822Z" fill="#D9D9D9"/>
<path d="M195.082 46.1991C196.154 45.4478 197.627 46.2203 197.619 47.5295C197.612 48.7372 196.328 49.5081 195.258 48.9473C194.189 48.3864 194.093 46.8921 195.082 46.1991Z" fill="#D9D9D9"/>
<path d="M197.015 26.7213C198.011 27.5706 199.551 26.9408 199.666 25.6367C199.773 24.4337 198.568 23.5449 197.45 24.0021C196.332 24.4593 196.095 25.9379 197.015 26.7213Z" fill="#D9D9D9"/>
<path d="M185.577 41.2306C186.649 40.4793 188.122 41.2518 188.114 42.561C188.107 43.7687 186.823 44.5396 185.753 43.9788C184.684 43.4179 184.588 41.9236 185.577 41.2306Z" fill="#D9D9D9"/>
<path d="M189.039 30.7622C190.047 31.5972 191.578 30.9454 191.675 29.6398C191.764 28.4354 190.547 27.5639 189.435 28.0371C188.324 28.5102 188.109 29.9921 189.039 30.7622Z" fill="#D9D9D9"/>
<path d="M133.444 55.5073C128.767 55.5073 125.089 54.1683 122.411 51.4904C119.733 48.8125 118.394 44.8974 118.394 39.745V22.0505C118.394 20.6465 119.532 19.5082 120.936 19.5082C122.34 19.5082 123.479 20.6465 123.479 22.0505V39.5416C123.479 43.5076 124.343 46.4058 126.072 48.2363C127.834 50.0667 130.309 50.982 133.495 50.982C136.716 50.982 139.19 50.0667 140.919 48.2363C142.681 46.4058 143.563 43.5076 143.563 39.5416V21.9743C143.563 20.6123 144.667 19.5082 146.029 19.5082C147.391 19.5082 148.495 20.6123 148.495 21.9743V39.745C148.495 44.8974 147.156 48.8125 144.478 51.4904C141.834 54.1683 138.156 55.5073 133.444 55.5073ZM132.503 16.61C131.64 16.61 130.811 16.2721 130.193 15.6685L127.153 12.6969C126.145 11.7117 126.843 10 128.252 10C128.618 10 128.972 10.1273 129.253 10.36L133.961 14.2472C134.489 14.6837 134.181 15.5422 133.495 15.5422C132.81 15.5422 132.501 14.6837 133.03 14.2472L137.737 10.36C138.019 10.1273 138.373 10 138.738 10C140.148 10 140.846 11.7117 139.838 12.6969L136.797 15.6685C136.18 16.2721 135.351 16.61 134.487 16.61H132.503Z" fill="white"/>
<path d="M91.3173 52.9833C88.6055 52.9833 86.0802 52.5257 83.7412 51.6104C81.4362 50.6952 79.4363 49.424 77.7414 47.797C76.0465 46.136 74.7245 44.2038 73.7754 42.0005C72.8263 39.7972 72.3517 37.3905 72.3517 34.7804C72.3517 32.1703 72.8263 29.7635 73.7754 27.5602C74.7245 25.3569 76.0465 23.4417 77.7414 21.8146C79.4363 20.1536 81.4362 18.8655 83.7412 17.9503C86.0463 17.0351 88.5716 16.5775 91.3173 16.5775C94.0291 16.5775 96.5206 17.0351 98.7917 17.9503C101.097 18.8316 103.097 20.1028 104.792 21.7638C106.52 23.3908 107.842 25.306 108.758 27.5094C109.707 29.7127 110.181 32.1364 110.181 34.7804C110.181 37.4244 109.707 39.848 108.758 42.0514C107.842 44.2547 106.52 46.1868 104.792 47.8478C103.097 49.4749 101.097 50.746 98.7917 51.6613C96.5206 52.5426 94.0291 52.9833 91.3173 52.9833ZM102.961 60C101.775 60 100.639 59.8475 99.5544 59.5424C98.4697 59.2712 97.385 58.8136 96.3002 58.1696C95.2155 57.5594 94.0969 56.7459 92.9444 55.729C92.6531 55.4805 92.3553 55.2169 92.051 54.9381C90.6978 53.6983 91.3333 51.505 93.1088 51.0404C94.0303 50.7993 95 51.1268 95.6366 51.8354C96.2868 52.5592 96.9148 53.1791 97.5205 53.6951C98.4697 54.5087 99.4018 55.0849 100.317 55.4239C101.232 55.7967 102.131 55.9832 103.012 55.9832C104.833 55.9832 106.462 55.4615 107.901 54.4182C108.836 53.7395 110.186 53.7397 110.921 54.6315C111.495 55.3274 111.505 56.3461 110.85 56.9662C108.713 58.9888 106.084 60 102.961 60ZM91.3173 48.458C93.2834 48.458 95.0969 48.119 96.7578 47.441C98.4527 46.7631 99.9103 45.797 101.131 44.5428C102.385 43.2886 103.351 41.831 104.029 40.17C104.741 38.5091 105.097 36.7125 105.097 34.7804C105.097 32.8143 104.741 31.0008 104.029 29.3398C103.351 27.6789 102.385 26.2382 101.131 25.0179C99.9103 23.7637 98.4527 22.7976 96.7578 22.1197C95.0969 21.4417 93.2834 21.1028 91.3173 21.1028C89.3174 21.1028 87.47 21.4417 85.7751 22.1197C84.1141 22.7976 82.6565 23.7637 81.4023 25.0179C80.1481 26.2382 79.1651 27.6789 78.4532 29.3398C77.7753 31.0008 77.4363 32.8143 77.4363 34.7804C77.4363 36.7125 77.7753 38.5091 78.4532 40.17C79.1651 41.831 80.1481 43.2886 81.4023 44.5428C82.6565 45.797 84.1141 46.7631 85.7751 47.441C87.47 48.119 89.3174 48.458 91.3173 48.458Z" fill="white"/>
<path d="M46.284 35.2451C46.284 34.0516 47.2515 33.0841 48.445 33.0841H62.4277C63.6212 33.0841 64.5886 34.0516 64.5886 35.2451C64.5886 36.4386 63.6211 37.4061 62.4277 37.4061H48.445C47.2515 37.4061 46.284 36.4386 46.284 35.2451ZM46.7417 38.5247C46.7417 44.2533 51.3856 48.8973 57.1143 48.8973H65.2751C66.4966 48.8973 67.4869 49.8875 67.4869 51.1091C67.4869 52.3306 66.4966 53.3209 65.2751 53.3209H53.657C47.0296 53.3209 41.657 47.9483 41.657 41.3209V29.7286C41.657 23.1012 47.0296 17.7286 53.657 17.7286H64.5632C65.7848 17.7286 66.775 18.7189 66.775 19.9404C66.775 21.162 65.7848 22.1522 64.5632 22.1522H56.7583C51.2263 22.1522 46.7417 26.6368 46.7417 32.1689V38.5247ZM47.5043 13.0508C46.6619 13.0508 45.979 12.3678 45.979 11.5254C45.979 10.6829 46.6619 10 47.5043 10H61.0294C61.8719 10 62.5548 10.6829 62.5548 11.5254C62.5548 12.3678 61.8719 13.0508 61.0294 13.0508H47.5043Z" fill="white"/>
<path d="M18.9656 52.9833C16.2199 52.9833 13.6946 52.5426 11.3895 51.6613C9.08451 50.746 7.08456 49.4749 5.38969 47.8478C3.69482 46.1868 2.37282 44.2547 1.42369 42.0514C0.474564 39.848 0 37.4244 0 34.7804C0 32.1364 0.474564 29.7127 1.42369 27.5094C2.37282 25.306 3.69482 23.3908 5.38969 21.7638C7.11846 20.1028 9.13535 18.8316 11.4404 17.9503C13.7454 17.0351 16.2877 16.5775 19.0673 16.5775C21.8808 16.5775 24.457 17.0351 26.7959 17.9503C28.4352 18.5917 29.8996 19.458 31.1892 20.549C32.1223 21.3384 32.07 22.7437 31.2057 23.608C30.3117 24.5021 28.8765 24.4898 27.8502 23.7514C26.8891 23.0599 25.8767 22.516 24.8129 22.1197C23.118 21.4417 21.2706 21.1028 19.2707 21.1028C17.2368 21.1028 15.3386 21.4417 13.5759 22.1197C11.8471 22.7976 10.3387 23.7468 9.05061 24.9671C7.7964 26.1874 6.81338 27.645 6.10153 29.3398C5.42359 31.0008 5.08461 32.8143 5.08461 34.7804C5.08461 36.7125 5.42359 38.526 6.10153 40.2209C6.81338 41.8819 7.7964 43.3395 9.05061 44.5937C10.3387 45.814 11.8471 46.7631 13.5759 47.441C15.3047 48.119 17.186 48.458 19.2198 48.458C21.1181 48.458 22.9316 48.1698 24.6604 47.5936C25.645 47.2527 26.5874 46.7903 27.4874 46.2061C28.659 45.4457 30.2724 45.5681 31.1104 46.6854C31.8569 47.6808 31.7058 49.1009 30.6608 49.776C29.3276 50.6374 27.8529 51.3336 26.2366 51.8647C23.8977 52.6104 21.474 52.9833 18.9656 52.9833ZM29.6717 48.0831C28.4614 47.9192 27.5586 46.8859 27.5586 45.6646V37.0176C27.5586 35.6697 28.6513 34.577 29.9992 34.577C31.3471 34.577 32.4398 35.6697 32.4398 37.0176V45.6646C32.4398 47.1426 31.1364 48.2815 29.6717 48.0831Z" fill="white"/>
</svg>
