<svg width="166" height="166" viewBox="0 0 166 166" fill="none" xmlns="http://www.w3.org/2000/svg">
<path d="M166 83C166 128.84 128.84 166 83 166C37.1604 166 0 128.84 0 83C0 37.1604 37.1604 0 83 0C128.84 0 166 37.1604 166 83ZM50.1189 83C50.1189 101.16 64.8402 115.881 83 115.881C101.16 115.881 115.881 101.16 115.881 83C115.881 64.8402 101.16 50.1189 83 50.1189C64.8402 50.1189 50.1189 64.8402 50.1189 83Z" fill="#242424"/>
<path d="M160 83C160 125.526 125.526 160 83 160C40.4741 160 6 125.526 6 83C6 40.4741 40.4741 6 83 6C125.526 6 160 40.4741 160 83ZM8.17936 83C8.17936 124.322 41.6777 157.821 83 157.821C124.322 157.821 157.821 124.322 157.821 83C157.821 41.6777 124.322 8.17936 83 8.17936C41.6777 8.17936 8.17936 41.6777 8.17936 83Z" fill="#848484"/>
<path d="M130 83C130 108.957 108.957 130 83 130C57.0426 130 36 108.957 36 83C36 57.0426 57.0426 36 83 36C108.957 36 130 57.0426 130 83ZM37.6407 83C37.6407 108.051 57.9488 128.359 83 128.359C108.051 128.359 128.359 108.051 128.359 83C128.359 57.9488 108.051 37.6407 83 37.6407C57.9488 37.6407 37.6407 57.9488 37.6407 83Z" fill="#848484"/>
<path d="M98 82.5L75.5 99.3875L75.5 65.6125L98 82.5Z" fill="#2CFF10"/>
</svg>
