<svg width="387" height="301" viewBox="0 0 387 301" fill="none" xmlns="http://www.w3.org/2000/svg">
<mask id="mask0_2_190" style="mask-type:alpha" maskUnits="userSpaceOnUse" x="0" y="0" width="387" height="301">
<rect width="387" height="301" rx="12" fill="#FF7D7D"/>
</mask>
<g mask="url(#mask0_2_190)">
<path d="M279.243 300.812V-1.81091H387V300.812H359.807V39.2593L366.057 55.2551H300.186L306.436 39.2593V300.812H279.243Z" fill="white"/>
<path d="M193.646 306C184.3 306 175.63 302.109 167.636 294.327C159.754 286.546 152.885 275.594 147.03 261.471C141.287 247.349 136.783 230.777 133.518 211.755C130.365 192.733 128.789 171.981 128.789 149.501C128.789 127.02 130.365 106.269 133.518 87.247C136.783 68.2251 141.344 51.6529 147.199 37.5305C153.054 23.4081 159.923 12.456 167.804 4.67428C175.686 -3.10744 184.244 -6.99829 193.477 -6.99829C202.823 -6.99829 211.38 -3.10744 219.149 4.67428C227.031 12.456 233.844 23.4081 239.586 37.5305C245.441 51.6529 250.002 68.2251 253.267 87.247C256.532 105.981 258.165 126.732 258.165 149.501C258.165 171.981 256.532 192.877 253.267 212.187C250.002 231.209 245.441 247.781 239.586 261.904C233.844 275.738 227.031 286.546 219.149 294.327C211.38 302.109 202.879 306 193.646 306ZM193.477 246.34C198.769 246.34 203.611 244.034 208.002 239.423C212.506 234.812 216.447 228.183 219.825 219.536C223.203 210.89 225.793 200.658 227.594 188.842C229.509 177.025 230.466 163.911 230.466 149.501C230.466 135.09 229.509 121.977 227.594 110.16C225.793 98.3432 223.203 88.1117 219.825 79.4653C216.56 70.8189 212.675 64.1901 208.171 59.5787C203.667 54.9673 198.769 52.6616 193.477 52.6616C188.185 52.6616 183.287 54.9673 178.783 59.5787C174.391 64.1901 170.507 70.8189 167.129 79.4653C163.751 88.1117 161.105 98.3432 159.191 110.16C157.389 121.977 156.488 135.09 156.488 149.501C156.488 163.623 157.389 176.737 159.191 188.842C161.105 200.658 163.695 210.89 166.96 219.536C170.338 228.183 174.279 234.812 178.783 239.423C183.287 244.034 188.185 246.34 193.477 246.34Z" fill="white"/>
<path d="M0 300.812V-1.81091H107.757V300.812H80.5645V39.2593L86.8137 55.2551H20.9434L27.1926 39.2593V300.812H0Z" fill="white"/>
</g>
</svg>
