<svg width="387" height="301" viewBox="0 0 387 301" fill="none" xmlns="http://www.w3.org/2000/svg">
<mask id="mask0_2_159" style="mask-type:alpha" maskUnits="userSpaceOnUse" x="0" y="0" width="387" height="301">
<rect width="387" height="301" rx="12" fill="#FF7D7D"/>
</mask>
<g mask="url(#mask0_2_159)">
<path d="M369.527 300.845L329.396 156.084L353.511 122.149L403.398 300.845H369.527ZM285.767 300.845V0.154785H315.405V300.845H285.767ZM306.753 179.71V121.72H351.67V179.71H306.753ZM356.272 158.232L328.844 150.5L370.631 0.154785H402.11L356.272 158.232Z" fill="white"/>
<path d="M192.842 306C182.655 306 173.206 302.134 164.492 294.402C155.902 286.67 148.415 275.788 142.034 261.755C135.775 247.723 130.866 231.257 127.307 212.356C123.871 193.456 122.153 172.837 122.153 150.5C122.153 128.163 123.871 107.544 127.307 88.6436C130.866 69.7431 135.836 53.2767 142.218 39.2445C148.6 25.2122 156.086 14.3301 164.676 6.59804C173.267 -1.13399 182.594 -5 192.657 -5C202.844 -5 212.171 -1.13399 220.638 6.59804C229.229 14.3301 236.654 25.2122 242.913 39.2445C249.295 53.2767 254.265 69.7431 257.824 88.6436C261.383 107.258 263.162 127.877 263.162 150.5C263.162 172.837 261.383 193.599 257.824 212.786C254.265 231.686 249.295 248.153 242.913 262.185C236.654 275.931 229.229 286.67 220.638 294.402C212.171 302.134 202.905 306 192.842 306ZM192.657 246.721C198.425 246.721 203.703 244.43 208.489 239.848C213.398 235.266 217.693 228.68 221.375 220.088C225.057 211.497 227.879 201.331 229.843 189.59C231.929 177.849 232.972 164.819 232.972 150.5C232.972 136.181 231.929 123.151 229.843 111.41C227.879 99.669 225.057 89.5028 221.375 80.9116C217.816 72.3204 213.582 65.7339 208.673 61.1519C203.764 56.57 198.425 54.279 192.657 54.279C186.889 54.279 181.551 56.57 176.642 61.1519C171.856 65.7339 167.622 72.3204 163.94 80.9116C160.258 89.5028 157.374 99.669 155.288 111.41C153.324 123.151 152.343 136.181 152.343 150.5C152.343 164.532 153.324 177.562 155.288 189.59C157.374 201.331 160.197 211.497 163.756 220.088C167.438 228.68 171.733 235.266 176.642 239.848C181.551 244.43 186.889 246.721 192.657 246.721Z" fill="white"/>
<path d="M-2.03778 300.845V0.154785H53.7402C65.2763 0.154785 75.2169 4.59355 83.5621 13.4711C91.9074 22.0622 98.3504 34.5194 102.891 50.8426C107.432 67.1658 109.702 86.6391 109.702 109.263C109.702 131.6 107.432 150.93 102.891 167.253C98.3504 183.576 91.9074 196.176 83.5621 205.054C75.2169 213.645 65.2763 217.941 53.7402 217.941H14.5299L27.7841 186.583V300.845H-2.03778ZM27.7841 194.315L14.5299 161.239H52.0835C61.2877 161.239 68.1603 156.657 72.7011 147.493C77.2419 138.329 79.5122 125.586 79.5122 109.263C79.5122 92.653 77.2419 79.7662 72.7011 70.6023C68.1603 61.4384 61.2877 56.8565 52.0835 56.8565H14.5299L27.7841 23.7805V194.315Z" fill="white"/>
</g>
</svg>
